<svg xmlns="http://www.w3.org/2000/svg" xmlns:xlink="http://www.w3.org/1999/xlink" width="1640" zoomAndPan="magnify" viewBox="0 0 1230 693.000001" height="924" preserveAspectRatio="xMidYMid meet" version="1.0"><defs><clipPath id="15a64b441b"><path d="M 722 276 L 868 276 L 868 495.570312 L 722 495.570312 Z M 722 276 " clip-rule="nonzero"/></clipPath></defs><path fill="#fefefe" d="M 463.378906 276.800781 C 421.996094 276.800781 387.398438 308.6875 387.398438 352.101562 C 387.398438 395.519531 421.316406 427.402344 463.378906 427.402344 C 505.4375 427.402344 539.359375 396.199219 539.359375 352.78125 C 539.359375 308.6875 505.4375 276.800781 463.378906 276.800781 Z M 463.378906 398.234375 C 440.3125 398.234375 420.640625 379.238281 420.640625 352.78125 C 420.640625 325.644531 440.3125 307.328125 463.378906 307.328125 C 486.441406 307.328125 506.117188 325.644531 506.117188 352.78125 C 506.117188 379.238281 486.441406 398.234375 463.378906 398.234375 Z M 463.378906 398.234375 " fill-opacity="1" fill-rule="nonzero"/><g clip-path="url(#15a64b441b)"><path fill="#fefefe" d="M 834.457031 293.761719 L 833.101562 293.761719 C 825.636719 284.941406 811.390625 276.800781 793.074219 276.800781 C 755.085938 276.800781 722.523438 309.363281 722.523438 352.101562 C 722.523438 394.164062 755.085938 427.402344 793.074219 427.402344 C 811.390625 427.402344 825.636719 419.261719 833.101562 410.445312 L 834.457031 410.445312 L 834.457031 421.296875 C 834.457031 449.789062 818.855469 465.394531 794.433594 465.394531 C 774.082031 465.394531 761.871094 451.148438 756.441406 438.257812 L 727.949219 450.46875 C 736.089844 470.140625 758.476562 495.242188 795.109375 495.242188 C 833.777344 495.242188 867.019531 472.175781 867.019531 416.550781 L 867.019531 280.871094 L 835.8125 280.871094 L 835.8125 293.761719 Z M 796.46875 398.234375 C 773.402344 398.234375 756.441406 378.558594 756.441406 352.78125 C 756.441406 326.324219 774.082031 307.328125 796.46875 307.328125 C 818.855469 307.328125 836.492188 327.003906 836.492188 353.460938 C 837.171875 379.238281 819.53125 398.234375 796.46875 398.234375 Z M 796.46875 398.234375 " fill-opacity="1" fill-rule="nonzero"/></g><path fill="#ffffff" d="M 632.296875 276.800781 C 590.914062 276.800781 556.316406 308.6875 556.316406 352.101562 C 556.316406 395.519531 590.238281 427.402344 632.296875 427.402344 C 674.355469 427.402344 708.277344 396.199219 708.277344 352.78125 C 708.277344 308.6875 674.355469 276.800781 632.296875 276.800781 Z M 632.296875 398.234375 C 609.230469 398.234375 589.558594 379.238281 589.558594 352.78125 C 589.558594 325.644531 609.230469 307.328125 632.296875 307.328125 C 655.363281 307.328125 675.035156 325.644531 675.035156 352.78125 C 675.035156 379.238281 655.363281 398.234375 632.296875 398.234375 Z M 632.296875 398.234375 " fill-opacity="1" fill-rule="nonzero"/><path fill="#fefefe" d="M 892.121094 200.144531 L 924.683594 200.144531 L 924.683594 428.082031 L 892.121094 428.082031 Z M 892.121094 200.144531 " fill-opacity="1" fill-rule="nonzero"/><path fill="#fefefe" d="M 1025.085938 398.234375 C 1008.125 398.234375 996.59375 390.769531 988.449219 375.167969 L 1089.53125 333.785156 L 1086.140625 324.96875 C 1080.035156 308.007812 1060.359375 276.800781 1021.691406 276.800781 C 983.023438 276.800781 950.460938 307.328125 950.460938 352.101562 C 950.460938 394.164062 982.34375 427.402344 1025.085938 427.402344 C 1059.683594 427.402344 1079.355469 406.375 1088.175781 394.164062 L 1062.394531 377.203125 C 1053.578125 390.09375 1042.042969 398.234375 1025.085938 398.234375 Z M 1023.050781 305.292969 C 1036.617188 305.292969 1048.148438 312.078125 1051.542969 321.574219 L 983.703125 350.066406 C 983.023438 318.863281 1006.089844 305.292969 1023.050781 305.292969 Z M 1023.050781 305.292969 " fill-opacity="1" fill-rule="nonzero"/><path fill="#4285f4" d="M 359.019531 338.1875 C 359.019531 329.183594 358.210938 320.523438 356.710938 312.210938 L 237.09375 312.210938 L 237.09375 361.335938 L 305.445312 361.335938 C 302.503906 377.214844 293.554688 390.664062 280.105469 399.671875 L 280.105469 431.535156 L 321.148438 431.535156 C 345.164062 409.425781 359.019531 376.867188 359.019531 338.1875 Z M 359.019531 338.1875 " fill-opacity="1" fill-rule="nonzero"/><path fill="#34a853" d="M 237.09375 462.304688 C 271.386719 462.304688 300.136719 450.933594 321.148438 431.535156 L 280.105469 399.671875 C 268.730469 407.289062 254.183594 411.792969 237.09375 411.792969 C 204.015625 411.792969 176.019531 389.453125 166.03125 359.433594 L 123.601562 359.433594 L 123.601562 392.339844 C 144.496094 433.84375 187.449219 462.304688 237.09375 462.304688 Z M 237.09375 462.304688 " fill-opacity="1" fill-rule="nonzero"/><path fill="#fbbc05" d="M 166.03125 359.433594 C 163.492188 351.8125 162.046875 343.671875 162.046875 335.300781 C 162.046875 326.929688 163.492188 318.792969 166.03125 311.171875 L 166.03125 278.265625 L 123.601562 278.265625 C 119.15625 287.113281 115.789062 296.355469 113.507812 305.992188 C 111.226562 315.628906 110.085938 325.398438 110.089844 335.300781 C 110.089844 355.796875 115 375.191406 123.601562 392.339844 Z M 166.03125 359.433594 " fill-opacity="1" fill-rule="nonzero"/><path fill="#ea4335" d="M 237.09375 258.8125 C 255.742188 258.8125 272.484375 265.21875 285.644531 277.804688 L 322.074219 241.375 C 300.078125 220.882812 271.328125 208.296875 237.09375 208.296875 C 187.449219 208.296875 144.496094 236.757812 123.601562 278.265625 L 166.03125 311.171875 C 176.019531 281.152344 204.015625 258.8125 237.09375 258.8125 Z M 237.09375 258.8125 " fill-opacity="1" fill-rule="nonzero"/></svg>