<svg xmlns="http://www.w3.org/2000/svg" xmlns:xlink="http://www.w3.org/1999/xlink" width="1640" zoomAndPan="magnify" viewBox="0 0 1230 693.000001" height="924" preserveAspectRatio="xMidYMid meet" version="1.0"><defs><clipPath id="4e522e1dfc"><path d="M 72 227.410156 L 411 227.410156 L 411 464.820312 L 72 464.820312 Z M 72 227.410156 " clip-rule="nonzero"/></clipPath></defs><g clip-path="url(#4e522e1dfc)"><path fill="#ed1d24" d="M 403.820312 264.488281 C 399.921875 249.898438 388.441406 238.40625 373.863281 234.507812 C 347.433594 227.417969 241.464844 227.417969 241.464844 227.417969 C 241.464844 227.417969 135.496094 227.417969 109.070312 234.507812 C 94.488281 238.40625 83.007812 249.898438 79.109375 264.488281 C 72.027344 290.9375 72.027344 346.117188 72.027344 346.117188 C 72.027344 346.117188 72.027344 401.300781 79.109375 427.75 C 83.007812 442.339844 94.488281 453.832031 109.070312 457.730469 C 135.496094 464.820312 241.464844 464.820312 241.464844 464.820312 C 241.464844 464.820312 347.433594 464.820312 373.863281 457.730469 C 388.441406 453.832031 399.921875 442.339844 403.820312 427.75 C 410.902344 401.300781 410.902344 346.117188 410.902344 346.117188 C 410.902344 346.117188 410.902344 290.9375 403.820312 264.488281 " fill-opacity="1" fill-rule="nonzero"/></g><path fill="#ffffff" d="M 207.578125 396.992188 L 295.617188 346.121094 L 207.578125 295.246094 Z M 207.578125 396.992188 " fill-opacity="1" fill-rule="nonzero"/><path fill="#ffffff" d="M 601.464844 420.105469 C 603.320312 415.257812 604.253906 407.335938 604.253906 396.34375 L 604.253906 350.015625 C 604.253906 339.347656 603.320312 331.546875 601.464844 326.613281 C 599.609375 321.683594 596.335938 319.214844 591.652344 319.214844 C 587.128906 319.214844 583.933594 321.683594 582.078125 326.613281 C 580.222656 331.546875 579.292969 339.347656 579.292969 350.015625 L 579.292969 396.34375 C 579.292969 407.335938 580.179688 415.257812 581.960938 420.105469 C 583.734375 424.960938 586.964844 427.382812 591.652344 427.382812 C 596.335938 427.382812 599.609375 424.960938 601.464844 420.105469 Z M 563.90625 443.390625 C 557.199219 438.867188 552.429688 431.832031 549.605469 422.289062 C 546.777344 412.753906 545.367188 400.058594 545.367188 384.214844 L 545.367188 362.628906 C 545.367188 346.625 546.980469 333.769531 550.210938 324.066406 C 553.441406 314.367188 558.488281 307.296875 565.359375 302.847656 C 572.222656 298.402344 581.230469 296.175781 592.378906 296.175781 C 603.367188 296.175781 612.167969 298.441406 618.792969 302.96875 C 625.414062 307.496094 630.265625 314.570312 633.335938 324.1875 C 636.402344 333.808594 637.9375 346.625 637.9375 362.628906 L 637.9375 384.214844 C 637.9375 400.058594 636.441406 412.796875 633.453125 422.414062 C 630.464844 432.035156 625.617188 439.066406 618.914062 443.511719 C 612.207031 447.957031 603.121094 450.183594 591.652344 450.183594 C 579.855469 450.183594 570.605469 447.917969 563.90625 443.390625 " fill-opacity="1" fill-rule="nonzero"/><path fill="#ffffff" d="M 1082.851562 321.996094 C 1081.160156 324.097656 1080.023438 327.535156 1079.460938 332.300781 C 1078.890625 337.074219 1078.617188 344.308594 1078.617188 354.007812 L 1078.617188 364.679688 L 1103.085938 364.679688 L 1103.085938 354.007812 C 1103.085938 344.46875 1102.761719 337.234375 1102.117188 332.300781 C 1101.472656 327.371094 1100.304688 323.898438 1098.605469 321.875 C 1096.910156 319.851562 1094.285156 318.84375 1090.730469 318.84375 C 1087.171875 318.84375 1084.546875 319.894531 1082.851562 321.996094 Z M 1078.617188 384.566406 L 1078.617188 392.085938 C 1078.617188 401.628906 1078.890625 408.78125 1079.460938 413.550781 C 1080.023438 418.320312 1081.191406 421.796875 1082.976562 423.980469 C 1084.753906 426.160156 1087.492188 427.253906 1091.214844 427.253906 C 1096.21875 427.253906 1099.65625 425.3125 1101.515625 421.429688 C 1103.367188 417.550781 1104.378906 411.085938 1104.539062 402.027344 L 1133.378906 403.726562 C 1133.542969 405.023438 1133.625 406.804688 1133.625 409.0625 C 1133.625 422.808594 1129.867188 433.074219 1122.355469 439.867188 C 1114.84375 446.65625 1104.21875 450.050781 1090.488281 450.050781 C 1074.011719 450.050781 1062.457031 444.878906 1055.835938 434.527344 C 1049.207031 424.183594 1045.894531 408.175781 1045.894531 386.507812 L 1045.894531 360.554688 C 1045.894531 338.246094 1049.328125 321.957031 1056.195312 311.6875 C 1063.0625 301.421875 1074.816406 296.285156 1091.457031 296.285156 C 1102.925781 296.285156 1111.730469 298.390625 1117.871094 302.59375 C 1124.007812 306.800781 1128.332031 313.347656 1130.835938 322.238281 C 1133.339844 331.128906 1134.59375 343.421875 1134.59375 359.101562 L 1134.59375 384.566406 L 1078.617188 384.566406 " fill-opacity="1" fill-rule="nonzero"/><path fill="#ffffff" d="M 482.472656 381.785156 L 444.421875 244.269531 L 477.625 244.269531 L 490.949219 306.597656 C 494.347656 321.964844 496.847656 335.058594 498.464844 345.886719 L 499.433594 345.886719 C 500.5625 338.128906 503.066406 325.113281 506.945312 306.84375 L 520.757812 244.269531 L 553.957031 244.269531 L 515.429688 381.785156 L 515.429688 447.757812 L 482.472656 447.757812 L 482.472656 381.785156 " fill-opacity="1" fill-rule="nonzero"/><path fill="#ffffff" d="M 745.917969 299.085938 L 745.917969 447.757812 L 719.742188 447.757812 L 716.832031 429.566406 L 716.109375 429.566406 C 709 443.308594 698.335938 450.179688 684.121094 450.179688 C 674.265625 450.179688 666.996094 446.949219 662.308594 440.480469 C 657.621094 434.015625 655.28125 423.90625 655.28125 410.164062 L 655.28125 299.085938 L 688.726562 299.085938 L 688.726562 408.222656 C 688.726562 414.855469 689.453125 419.582031 690.90625 422.410156 C 692.359375 425.242188 694.785156 426.65625 698.175781 426.65625 C 701.085938 426.65625 703.871094 425.769531 706.535156 423.984375 C 709.203125 422.207031 711.179688 419.949219 712.472656 417.199219 L 712.472656 299.085938 L 745.917969 299.085938 " fill-opacity="1" fill-rule="nonzero"/><path fill="#ffffff" d="M 917.457031 299.085938 L 917.457031 447.757812 L 891.28125 447.757812 L 888.375 429.566406 L 887.652344 429.566406 C 880.535156 443.308594 869.875 450.179688 855.660156 450.179688 C 845.804688 450.179688 838.535156 446.949219 833.847656 440.480469 C 829.160156 434.015625 826.820312 423.90625 826.820312 410.164062 L 826.820312 299.085938 L 860.265625 299.085938 L 860.265625 408.222656 C 860.265625 414.855469 860.988281 419.582031 862.441406 422.410156 C 863.898438 425.242188 866.324219 426.65625 869.714844 426.65625 C 872.625 426.65625 875.410156 425.769531 878.074219 423.984375 C 880.742188 422.207031 882.71875 419.949219 884.011719 417.199219 L 884.011719 299.085938 L 917.457031 299.085938 " fill-opacity="1" fill-rule="nonzero"/><path fill="#ffffff" d="M 836.789062 271.195312 L 803.589844 271.195312 L 803.589844 447.757812 L 770.875 447.757812 L 770.875 271.195312 L 737.675781 271.195312 L 737.675781 244.273438 L 836.789062 244.273438 L 836.789062 271.195312 " fill-opacity="1" fill-rule="nonzero"/><path fill="#ffffff" d="M 997.484375 383.492188 C 997.484375 394.328125 997.035156 402.816406 996.148438 408.957031 C 995.261719 415.105469 993.765625 419.472656 991.664062 422.054688 C 989.566406 424.644531 986.734375 425.933594 983.1875 425.933594 C 980.433594 425.933594 977.890625 425.292969 975.550781 423.996094 C 973.207031 422.703125 971.3125 420.761719 969.855469 418.171875 L 969.855469 333.773438 C 970.984375 329.734375 972.921875 326.417969 975.671875 323.832031 C 978.417969 321.246094 981.402344 319.949219 984.636719 319.949219 C 988.03125 319.949219 990.652344 321.285156 992.515625 323.953125 C 994.367188 326.621094 995.664062 331.105469 996.390625 337.414062 C 997.121094 343.71875 997.484375 352.691406 997.484375 364.332031 Z M 1028.136719 322.851562 C 1026.117188 313.476562 1022.84375 306.6875 1018.320312 302.480469 C 1013.796875 298.277344 1007.578125 296.175781 999.664062 296.175781 C 993.523438 296.175781 987.789062 297.914062 982.457031 301.386719 C 977.128906 304.867188 973.003906 309.433594 970.097656 315.09375 L 969.851562 315.09375 L 969.855469 236.753906 L 937.625 236.753906 L 937.625 447.753906 L 965.25 447.753906 L 968.644531 433.6875 L 969.371094 433.6875 C 971.953125 438.699219 975.832031 442.660156 981 445.570312 C 986.171875 448.480469 991.910156 449.9375 998.210938 449.9375 C 1009.515625 449.9375 1017.835938 444.722656 1023.167969 434.292969 C 1028.5 423.863281 1031.167969 407.578125 1031.167969 385.425781 L 1031.167969 361.898438 C 1031.167969 345.246094 1030.15625 332.230469 1028.136719 322.851562 " fill-opacity="1" fill-rule="nonzero"/></svg>